<?xml version="1.0" encoding="UTF-8"?>
<svg id="Camada_2" data-name="Camada 2" xmlns="http://www.w3.org/2000/svg" viewBox="0 0 701.68 227.99">
  <defs>
    <style>
      .cls-1 {
        stroke: #efe8de;
        stroke-linecap: round;
        stroke-linejoin: round;
        stroke-width: 1.28px;
      }
    </style>
  </defs>
  <g id="Layer_1" data-name="Layer 1">
    <g>
      <g>
        <path class="cls-1" d="M143.71,212.5v-1.42l2.51-.07v1.56c0,10.09,3.55,11.94,21.07,11.94s19.54-2.7,19.54-10.38c0-6.97-2.57-10.31-20.58-11.73-18.68-1.49-21.99-4.41-21.99-13.86s2.75-13.65,20.89-13.65,22.17,3.13,22.17,13.93v.93l-2.45.07v-1.07c0-8.89-3.19-11.02-19.72-11.02s-18.13,3.2-18.13,10.81,2.57,9.45,19.48,10.88c20.09,1.71,23.09,5.54,23.09,14.71s-3.37,13.22-22.3,13.22-23.58-2.49-23.58-14.86Z"/>
        <path class="cls-1" d="M198.75,202.26v-2.27c0-19.19,4.04-25.09,24.37-25.09s24.38,5.9,24.38,25.09v2.27c0,19.19-4.04,25.09-24.38,25.09s-24.37-5.9-24.37-25.09ZM244.75,202.26v-2.27c0-17.63-3.49-22.25-21.63-22.25s-21.62,4.69-21.62,22.25v2.27c0,17.63,3.49,22.25,21.62,22.25s21.63-4.62,21.63-22.25Z"/>
        <path class="cls-1" d="M304.31,185.49v5.26c0,3.98.06,8.6.06,16.63,0,14.64-3.74,19.97-22.48,19.97s-22.48-5.33-22.48-19.97c0-7.89.06-12.65.06-16.63v-5.26c0-3.98,0-7.11-.06-9.6h2.76c-.06,2.77-.06,5.97-.06,9.6v21.89c0,12.72,2.69,17.13,19.78,17.13s19.78-4.41,19.78-17.13v-22.25c0-3.48,0-6.61-.06-9.24h2.76c-.06,2.49-.06,5.61-.06,9.6Z"/>
        <path class="cls-1" d="M319.35,185.55c0-3.98,0-6.89-.06-9.67h27.99c12.68,0,17.09,3.98,17.09,14.15v.28c0,8.24-3.31,12.87-12.19,13.93,1.78,2.56,3.61,5.55,5.82,9.24,2.33,3.91,4.96,8.39,7.72,12.87h-3.43c-1.78-3.06-3.92-6.68-6.06-10.24l-6.86-11.59h-27.32v10.52c0,5.33,0,7.89.06,11.3h-2.82c.06-3.41.06-5.97.06-11.3v-29.5ZM322.05,178.59v23.24h24.62c11.15,0,14.95-3.27,14.95-11.51v-.28c0-8.25-3.43-11.45-14.33-11.45h-25.24Z"/>
        <path class="cls-1" d="M373.66,202.26v-2.27c0-19.12,4.04-25.09,24.25-25.09s23.4,5.47,23.4,18.69l-2.51.07c0-11.59-3-15.92-20.89-15.92s-21.5,4.69-21.5,22.25v2.27c0,17.63,3.49,22.25,21.5,22.25s21.01-4.34,21.01-15.92l2.51.07c0,13.22-3.31,18.69-23.52,18.69s-24.25-5.9-24.25-25.09Z"/>
        <path class="cls-1" d="M433.95,185.55c0-3.98,0-6.82-.06-9.67h2.82c-.06,2.77-.06,5.61-.06,9.52v29.64c0,5.33,0,7.82.06,11.3h-2.82c.06-3.48.06-5.97.06-11.3v-29.5Z"/>
        <path class="cls-1" d="M452.46,215.34v-29.64c0-4.05,0-6.97-.06-9.81h7.23l18.74,27.86c5.14,7.68,9.98,15.07,13.23,19.97h3.49c-.12-6.04-.31-19.69-.31-26.87,0-5.69,0-15.36-.06-20.97h2.82c-.06,2.84-.06,5.69-.06,9.67v29.71c0,4.69,0,7.96.06,11.09h-7.17l-19.72-29.36c-4.9-7.32-9.55-14.22-12.37-18.48h-3.37c0,5.9.24,15.99.24,27.58,0,4.98,0,14.64.06,20.26h-2.82c.06-3.13.06-6.4.06-11.02Z"/>
        <path class="cls-1" d="M510.19,202.26v-2.27c0-19.12,4.04-25.09,24.25-25.09s23.4,5.47,23.4,18.69l-2.45.07c-.06-11.59-2.94-15.92-20.95-15.92s-21.5,4.69-21.5,22.25v2.27c0,17.63,3.49,22.25,21.5,22.25s21.01-2.63,20.89-19.97h-26.65v-2.7h29.28c-.06,1.21-.06,2.42-.06,2.99,0,18.55-3.68,22.53-23.46,22.53s-24.25-5.9-24.25-25.09Z"/>
      </g>
      <g>
        <path d="M54.72,30.84c-3.92-3.27-9.81-6.33-15.1-6.33-9.22,0-13.54,19.4-13.54,44.73,0,31.45,3.14,48.61,14.32,48.61,5.69,0,11.38-4.49,15.69-9.19l-.78,26.14c-4.51,4.49-12.36,7.76-22.36,7.76C8.04,142.56,0,116.62,0,73.73S9.81,0,36.68,0c8.63,0,15.89,2.86,19.62,5.72l-1.57,25.12Z"/>
        <path d="M99.69,142.56c-26.87,0-33.73-29.21-33.73-70.26S74.39,0,103.03,0c26.67,0,33.34,29.21,33.34,70.26s-8.23,72.3-36.68,72.3ZM101.26,22.26c-6.67,0-9.42,20.43-9.42,46.98,0,30.64,1.77,51.06,9.42,51.06,6.47,0,9.22-20.42,9.22-46.98,0-30.64-1.96-51.06-9.22-51.06Z"/>
        <path d="M179.77,142.56c-26.87,0-33.73-29.21-33.73-70.26S154.47,0,183.11,0c26.67,0,33.34,29.21,33.34,70.26s-8.23,72.3-36.68,72.3ZM181.34,22.26c-6.67,0-9.42,20.43-9.42,46.98,0,30.64,1.77,51.06,9.42,51.06,6.47,0,9.22-20.42,9.22-46.98,0-30.64-1.96-51.06-9.22-51.06Z"/>
        <path d="M266.32,140.72c-10.79-58.01-12.55-62.09-14.71-63.32h-.78v63.32h-24.71V1.84h24.71v61.68c3.14-8.98,15.5-61.68,15.5-61.68h26.87l-20.6,64.54c2.35,1.43,6.08,7.96,21.19,74.35h-27.46Z"/>
        <g>
          <path d="M345.74,142.56c-10,0-18.24-3.27-24.13-7.76l2.35-24.71c5.49,5.31,12.95,9.19,19.03,9.19,5.3,0,9.22-3.68,9.22-13.07,0-20.83-29.03-37.99-29.03-71.28,0-18.59,9.81-34.93,30.2-34.93,9.81,0,16.87,2.45,22.36,5.92l-1.77,23.08c-4.51-3.06-11.96-6.13-17.66-6.13-4.9,0-7.85,4.08-7.85,10.01,0,21.04,29.23,38.81,29.23,70.67,0,23.28-11.38,39.01-31.97,39.01Z"/>
          <path d="M427.13,24.92v115.81h-25.5V24.92h-16.08V1.84h57.47v23.08h-15.89Z"/>
          <path d="M491.84,140.72c-5.49-48.82-7.26-54.12-10.39-55.76h-6.08v55.76h-24.52V1.84s16.87-1.02,31.57-1.02c22.16,0,31.58,15.11,31.58,36.97,0,20.63-6.86,33.91-12.55,37.58,6.08,3.27,8.63,10.62,16.48,65.36h-26.09ZM478.11,21.24h-2.74v43.5h8.63c2.35-3.68,4.9-10.42,4.9-22.47,0-13.07-3.53-21.04-10.79-21.04Z"/>
          <path d="M525.77,140.72V1.84h50.21v22.67h-25.5v34.32h20.2v22.06h-20.2v36.97h26.68v22.88h-51.39Z"/>
          <path d="M584.99,140.72V1.84h50.21v22.67h-25.5v34.32h20.2v22.06h-20.2v36.97h26.67v22.88h-51.38Z"/>
          <path d="M685.79,24.92v115.81h-25.5V24.92h-16.08V1.84h57.47v23.08h-15.89Z"/>
        </g>
      </g>
    </g>
  </g>
</svg>